<svg xmlns="http://www.w3.org/2000/svg" width="430" height="430" fill="none" viewBox="0 0 430 430"><path fill="url(#F_nw-vDaPwa)" d="M188.31 235.68H54.88c-3.31 0-6 2.69-6 6v133.44c0 3.31 2.69 6 6 6h133.43c3.32 0 6-2.69 6-6V241.68c0-3.31-2.68-6-6-6M73.6 356.4v-96h96v96zm168.09 24.72c-3.31 0-6-2.69-6-6V241.69c0-3.31 2.69-6 6-6h133.43c3.31 0 6 2.69 6 6s-2.69 6-6 6H247.69v127.43c0 3.31-2.69 6-6 6M188.31 48.88H54.88c-3.31 0-6 2.68-6 6v133.43c0 3.31 2.69 6 6 6h133.43c3.32 0 6-2.69 6-6V54.88c0-3.32-2.68-6-6-6M73.6 169.59v-96h96v96zM375.12 48.88H241.69c-3.32 0-6 2.68-6 6v133.43c0 3.31 2.68 6 6 6h133.43c3.31 0 6-2.69 6-6V54.88c0-3.32-2.69-6-6-6M260.4 169.59v-96h96v96zm88.03 158.15c-3.31 0-6-2.69-6-6v-47.37h-68.06v21.35c0 3.31-2.69 6-6 6s-6-2.69-6-6v-27.35c0-3.31 2.69-6 6-6h80.06c3.31 0 6 2.69 6 6v53.37c0 3.31-2.69 6-6 6m26.69 53.37h-80.06c-3.31 0-6-2.69-6-6v-80.06c0-3.31 2.69-6 6-6h26.69c3.31 0 6 2.69 6 6v47.37h20.69c3.31 0 6 2.69 6 6s-2.69 6-6 6h-26.69c-3.31 0-6-2.69-6-6v-47.37h-14.69v68.06h68.06V268.36c0-3.31 2.69-6 6-6s6 2.69 6 6v106.75c0 3.31-2.69 6-6 6m-106.75 0c-3.31 0-6-2.69-6-6v-53.37c0-3.31 2.69-6 6-6s6 2.69 6 6v53.37c0 3.31-2.69 6-6 6m57.53-239.02h-35c-1.66 0-3-1.34-3-3v-35c0-1.66 1.34-3 3-3h35c1.66 0 3 1.34 3 3v35c0 1.66-1.34 3-3 3m-186.81 0h-35c-1.66 0-3-1.34-3-3v-35c0-1.66 1.34-3 3-3h35c1.66 0 3 1.34 3 3v35c0 1.66-1.34 3-3 3m0 186.81h-35c-1.66 0-3-1.34-3-3v-35c0-1.66 1.34-3 3-3h35c1.66 0 3 1.34 3 3v35c0 1.66-1.34 3-3 3"/><defs><linearGradient id="F_nw-vDaPwa" x1="50.6399" x2="379.36" y1="50.64" y2="379.36" gradientUnits="userSpaceOnUse"><stop stop-color="#fff"/><stop offset="1" stop-color="#4be1ec"/></linearGradient></defs></svg>